<svg width="50" height="50" viewBox="0 0 50 50" fill="none" xmlns="http://www.w3.org/2000/svg">
<g clip-path="url(#clip0_76_4)">
<path d="M3.40909 50H11.3636V24.2424L0 12.8788V45.4545C0 47.9697 1.52841 50 3.40909 50Z" fill="#4285F4"/>
<path d="M38.6364 50H46.5909C48.4773 50 50 47.9621 50 45.4545V12.8788L38.6364 24.2424" fill="#34A853"/>
<path d="M38.6364 4.54541V24.2424L50 12.8787V6.81814C50 1.19692 45.1875 -2.00762 41.8182 1.36359" fill="#FBBC04"/>
<path d="M11.3636 24.2424V4.54541L25 18.1818L38.6364 4.54541V24.2424L25 37.8787" fill="#EA4335"/>
<path d="M0 6.81814V12.8787L11.3636 24.2424V4.54541L8.18182 1.36359C4.80682 -2.00762 0 1.19692 0 6.81814Z" fill="#C5221F"/>
</g>
<defs>
<clipPath id="clip0_76_4">
<rect width="50" height="50" rx="15" fill="white"/>
</clipPath>
</defs>
</svg>
