<svg width="50" height="37" viewBox="0 0 50 37" fill="none" xmlns="http://www.w3.org/2000/svg">
<path d="M49.8549 3.62896L42.3103 34.7618C41.7411 36.959 40.2567 37.5059 38.1473 36.4708L32.7447 32.9873C29.1231 30.6521 24.402 30.952 21.1049 33.7266C20.0563 34.6442 18.8905 33.524 19.0025 32.1351L19.3838 27.4047C19.5348 25.5323 20.4575 23.807 21.931 22.642L40.9263 7.6231C41.8527 6.90045 40.7255 6.50006 39.4866 7.22271L18.4779 18.7975C15.0595 20.6809 11.0417 21.1578 7.27739 20.1268L1.80804 18.629C-0.658474 17.9551 -0.703117 16.4708 2.32144 15.4356L46.6741 0.484433C48.7277 -0.189395 50.5246 0.884824 49.8549 3.62896Z" fill="#27A7E7"/>
</svg>
