<svg width="41" height="37" viewBox="0 0 41 37" fill="none" xmlns="http://www.w3.org/2000/svg">
<path d="M38.2661 8.66368C37.8456 9.02214 37.604 9.55201 37.6068 10.1045C37.6073 10.2147 37.6073 10.325 37.6073 10.4352C37.6073 22.7781 28.74 37 12.533 37C8.29208 37 4.30704 35.8947 0.811939 33.9322C0.338366 33.6663 0.585052 32.9242 1.12817 32.9242C2.79121 32.9242 4.40092 32.684 5.92858 32.2321C8.25533 31.5438 7.50555 27.8677 5.87158 26.0739C5.31311 25.4608 4.83379 24.7672 4.45057 24.0109C4.10096 23.3209 4.72023 22.6047 5.4937 22.6047C6.0944 22.6047 6.14511 21.765 5.61454 21.4834C2.7242 19.9489 0.746126 16.7911 0.746126 13.1234C0.746126 13.0724 0.801706 13.0406 0.845998 13.066C1.2242 13.2829 1.62159 13.4729 2.0346 13.6323C2.79449 13.9255 3.24358 12.9255 2.75031 12.2774C1.52931 10.6731 0.800716 8.63313 0.800716 6.41712C0.800716 4.10103 3.60942 3.76261 5.34056 5.30126C8.87414 8.44196 13.2437 10.5618 18.0303 11.2606C19.1108 11.4184 19.9543 10.4287 19.9543 9.33673C19.9543 4.19136 23.8832 0 28.7671 0C30.9294 0 32.9133 0.818633 34.4489 2.1876C34.945 2.62989 35.6098 2.87488 36.251 2.69991C37.0518 2.48138 37.835 2.20258 38.5911 1.86943C39.3821 1.52092 40.227 2.23502 39.7689 2.96798C39.572 3.28289 39.3574 3.58449 39.1263 3.87124C38.6734 4.43334 39.1481 5.43412 39.8377 5.22067C40.487 5.01969 41.0534 5.74917 40.6198 6.27258C39.9026 7.13838 39.1143 7.94056 38.2661 8.66368Z" fill="#1DA1F2"/>
</svg>
