<svg width="48" height="32" viewBox="0 0 48 32" fill="none" xmlns="http://www.w3.org/2000/svg">
<path d="M46.3091 2.49414C46.6302 1.27344 46.3091 0.375 44.7639 0.375H39.6511C38.3769 0.375 37.776 1.11377 37.4499 1.95074C37.4356 1.98739 37.4239 2.01953 37.4102 2.0564C37.1704 2.7012 34.6439 9.37193 31.1441 13.7734C29.9549 15.1113 29.408 15.541 28.757 15.541C28.4358 15.541 27.941 15.1113 27.941 13.8906V2.49414C27.941 1.0293 27.5764 0.375 26.5 0.375H18.4618C17.6459 0.375 17.1598 1.05859 17.1598 1.69336C17.1598 3.08008 19 3.40234 19.191 7.30859V15.7852C19.191 17.6406 18.8959 17.9824 18.2448 17.9824C16.5087 17.9824 12.29 10.8145 9.78997 2.61133C9.2865 1.01953 8.79171 0.375 7.48094 0.375H2.3681C0.909763 0.375 0.614624 1.14648 0.614624 2.00586C0.614624 3.5293 2.35074 11.0977 8.69622 21.0977C12.9237 27.9238 18.8785 31.625 24.2952 31.625C27.5504 31.625 27.9497 30.8047 27.9497 29.3887C27.9497 22.8652 27.6546 22.25 29.2865 22.25C30.0417 22.25 31.3438 22.6797 34.382 25.9707C37.8542 29.877 38.4271 31.625 40.3716 31.625H45.4844C46.9427 31.625 47.6806 30.8047 47.2553 29.1836C46.283 25.7754 39.7118 18.7637 39.4167 18.2949C39.1491 17.9073 39.0035 17.5957 38.9511 17.3115C38.7488 16.2141 39.7166 15.2656 40.2979 14.3131C42.0439 11.452 45.8173 5.05852 46.3091 2.49414Z" fill="#2787F5"/>
</svg>
